<svg xmlns="http://www.w3.org/2000/svg" xmlns:xlink="http://www.w3.org/1999/xlink" version="1.1" x="0px" y="0px" viewBox="0 0 64 80" enable-background="new 0 0 64 64" xml:space="preserve"><g><g><path d="M32,62C15.458,62,2,48.542,2,32S15.458,2,32,2c3.927,0,7.746,0.748,11.351,2.222l-0.757,1.852C39.23,4.697,35.666,4,32,4    C16.561,4,4,16.561,4,32s12.561,28,28,28s28-12.561,28-28c0-8.899-4.294-17.353-11.486-22.614l1.181-1.614    C57.4,13.408,62,22.465,62,32C62,48.542,48.542,62,32,62z"/><path d="M46.5,8.042c-0.608-0.369-1.235-0.717-1.863-1.035l0.903-1.784c0.673,0.34,1.345,0.714,1.997,1.109L46.5,8.042z"/><path d="M38,54H26c-1.654,0-3-1.346-3-3v-9c0-0.551-0.449-1-1-1h-9c-1.654,0-3-1.346-3-3V26c0-1.654,1.346-3,3-3h9    c0.551,0,1-0.449,1-1v-9c0-1.654,1.346-3,3-3h12c1.654,0,3,1.346,3,3v9c0,0.551,0.449,1,1,1h9c1.654,0,3,1.346,3,3v12    c0,1.654-1.346,3-3,3h-9c-0.551,0-1,0.449-1,1v9C41,52.654,39.654,54,38,54z M13,25c-0.551,0-1,0.449-1,1v12c0,0.551,0.449,1,1,1    h9c1.654,0,3,1.346,3,3v9c0,0.551,0.449,1,1,1h12c0.551,0,1-0.449,1-1v-9c0-1.654,1.346-3,3-3h9c0.551,0,1-0.449,1-1V26    c0-0.551-0.449-1-1-1h-9c-1.654,0-3-1.346-3-3v-9c0-0.551-0.449-1-1-1H26c-0.551,0-1,0.449-1,1v9c0,1.654-1.346,3-3,3H13z"/><path d="M36,20c-0.256,0-0.512-0.098-0.707-0.293L32,16.414l-3.293,3.293c-0.391,0.391-1.023,0.391-1.414,0s-0.391-1.023,0-1.414    l4-4c0.391-0.391,1.023-0.391,1.414,0l4,4c0.391,0.391,0.391,1.023,0,1.414C36.512,19.902,36.256,20,36,20z"/><path d="M32,50c-0.256,0-0.512-0.098-0.707-0.293l-4-4c-0.391-0.391-0.391-1.023,0-1.414s1.023-0.391,1.414,0L32,47.586    l3.293-3.293c0.391-0.391,1.023-0.391,1.414,0s0.391,1.023,0,1.414l-4,4C32.512,49.902,32.256,50,32,50z"/><path d="M45,37c-0.256,0-0.512-0.098-0.707-0.293c-0.391-0.391-0.391-1.023,0-1.414L47.586,32l-3.293-3.293    c-0.391-0.391-0.391-1.023,0-1.414s1.023-0.391,1.414,0l4,4c0.391,0.391,0.391,1.023,0,1.414l-4,4C45.512,36.902,45.256,37,45,37z    "/><path d="M19,37c-0.256,0-0.512-0.098-0.707-0.293l-4-4c-0.391-0.391-0.391-1.023,0-1.414l4-4c0.391-0.391,1.023-0.391,1.414,0    s0.391,1.023,0,1.414L16.414,32l3.293,3.293c0.391,0.391,0.391,1.023,0,1.414C19.512,36.902,19.256,37,19,37z"/><path d="M27.368,37.248c-0.578-0.51-1.065-1.108-1.447-1.775l1.736-0.993c0.273,0.477,0.621,0.904,1.034,1.27L27.368,37.248z"/><path d="M32,39c-0.822,0-1.627-0.141-2.394-0.42l0.684-1.88C30.836,36.899,31.412,37,32,37c2.757,0,5-2.243,5-5s-2.243-5-5-5    s-5,2.243-5,5c0,0.278,0.023,0.557,0.068,0.828l-1.973,0.328C25.032,32.777,25,32.388,25,32c0-3.86,3.14-7,7-7s7,3.14,7,7    S35.86,39,32,39z"/></g></g><text x="0" y="79" fill="#000000" font-size="5px" font-weight="bold" font-family="'Helvetica Neue', Helvetica, Arial-Unicode, Arial, Sans-serif">Created by Petai Jantrapoon</text><text x="0" y="84" fill="#000000" font-size="5px" font-weight="bold" font-family="'Helvetica Neue', Helvetica, Arial-Unicode, Arial, Sans-serif">from the Noun Project</text></svg>